<svg xmlns="http://www.w3.org/2000/svg" width="1100" height="670" viewBox="0 0 1100 670"><rect width="100%" height="100%" fill="white"/>
<rect x="25.0" y="10.0" width="1050.0" height="125.0" rx="6" fill="#EBF5FB" stroke="#5DADE2" stroke-width="1.5"/>
<rect x="25.0" y="177.0" width="1050.0" height="110.0" rx="6" fill="#D4E6F1" stroke="#1B4F72" stroke-width="1.5"/>
<rect x="25.0" y="339.0" width="700.0" height="155.0" rx="6" fill="#EBF5FB" stroke="#1B4F72" stroke-width="1.5"/>
<rect x="780.0" y="339.0" width="295.0" height="155.0" rx="6" fill="#FEF5E7" stroke="#D35400" stroke-width="1.5"/>
<polyline points="550.0,135.0 550.0,177.0" fill="none" stroke="#1B4F72" stroke-width="2"/>
<polygon points="550.0,177.0 554.0,167.0 546.0,167.0" fill="#1B4F72"/>
<polyline points="195.0,287.0 195.0,391.0" fill="none" stroke="#1B4F72" stroke-width="2"/>
<polygon points="195.0,391.0 199.0,381.0 191.0,381.0" fill="#1B4F72"/>
<polyline points="550.0,287.0 550.0,391.0" fill="none" stroke="#1B4F72" stroke-width="2"/>
<polygon points="550.0,391.0 554.0,381.0 546.0,381.0" fill="#1B4F72"/>
<polyline points="930.0,287.0 930.0,339.0" fill="none" stroke="#B95E00" stroke-width="2"/>
<polygon points="930.0,339.0 934.0,329.0 926.0,329.0" fill="#B95E00"/>
<polyline points="705.0,432.0 800.0,432.0" fill="none" stroke="#B95E00" stroke-width="2"/>
<polygon points="800.0,432.0 790.0,428.0 790.0,436.0" fill="#B95E00"/>
<polyline points="25.0,260.0 10.0,260.0 10.0,605.0 35.0,605.0" fill="none" stroke="#B95E00" stroke-width="2"/>
<polygon points="35.0,605.0 25.0,601.0 25.0,609.0" fill="#B95E00"/>
<polyline points="200.0,472.0 200.0,526.0 600.0,526.0 600.0,563.0" fill="none" stroke="#C0392B" stroke-width="2"/>
<polygon points="600.0,563.0 604.0,553.0 596.0,553.0" fill="#C0392B"/>
<polyline points="550.0,472.0 550.0,507.0 875.0,507.0 875.0,563.0" fill="none" stroke="#C0392B" stroke-width="2"/>
<polygon points="875.0,563.0 879.0,553.0 871.0,553.0" fill="#C0392B"/>
<rect x="45.0" y="17.0" width="340.0" height="30.0" rx="6" fill="#FFFFFF" stroke="#FFFFFF" stroke-width="1.5"/>
<text x="215.0" y="32.0" fill="#1B4F72" text-anchor="middle" dominant-baseline="central" font-family="Microsoft YaHei" font-size="17">表现层  Vue 3 / Element Plus</text>
<rect x="45.0" y="60.0" width="315.0" height="54.0" rx="6" fill="#FFFFFF" stroke="#2E86AB" stroke-width="1.5"/>
<text x="202.5" y="87.0" fill="#1B4F72" text-anchor="middle" dominant-baseline="central" font-family="Microsoft YaHei" font-size="22.0">档案上传与任务状态</text>
<rect x="392.0" y="60.0" width="315.0" height="54.0" rx="6" fill="#FFFFFF" stroke="#2E86AB" stroke-width="1.5"/>
<text x="549.5" y="87.0" fill="#1B4F72" text-anchor="middle" dominant-baseline="central" font-family="Microsoft YaHei" font-size="22.0">业务数据与统计图表</text>
<rect x="739.0" y="60.0" width="315.0" height="54.0" rx="6" fill="#FFFFFF" stroke="#2E86AB" stroke-width="1.5"/>
<text x="896.5" y="87.0" fill="#1B4F72" text-anchor="middle" dominant-baseline="central" font-family="Microsoft YaHei" font-size="22.0">AI 助手与知识库</text>
<rect x="45.0" y="184.0" width="600.0" height="31.0" rx="6" fill="#FFFFFF" stroke="#FFFFFF" stroke-width="1.5"/>
<text x="345.0" y="199.5" fill="#1B4F72" text-anchor="middle" dominant-baseline="central" font-family="Microsoft YaHei" font-size="18">业务层  Spring Boot / MyBatis-Plus</text>
<rect x="45.0" y="231.0" width="230.0" height="40.0" rx="6" fill="#FFFFFF" stroke="#1B4F72" stroke-width="1.5"/>
<text x="160.0" y="251.0" fill="#1B4F72" text-anchor="middle" dominant-baseline="central" font-family="Microsoft YaHei" font-size="21.0">任务创建与进程管理</text>
<rect x="297.0" y="231.0" width="230.0" height="40.0" rx="6" fill="#FFFFFF" stroke="#1B4F72" stroke-width="1.5"/>
<text x="412.0" y="251.0" fill="#1B4F72" text-anchor="middle" dominant-baseline="central" font-family="Microsoft YaHei" font-size="15.0">字段处理 / 草稿审查 / 确认入库</text>
<rect x="549.0" y="231.0" width="230.0" height="40.0" rx="6" fill="#FFFFFF" stroke="#1B4F72" stroke-width="1.5"/>
<text x="664.0" y="251.0" fill="#1B4F72" text-anchor="middle" dominant-baseline="central" font-family="Microsoft YaHei" font-size="20.0">文件归档与质量参考分</text>
<rect x="801.0" y="231.0" width="252.0" height="40.0" rx="6" fill="#FFFFFF" stroke="#1B4F72" stroke-width="1.5"/>
<text x="927.0" y="251.0" fill="#1B4F72" text-anchor="middle" dominant-baseline="central" font-family="Microsoft YaHei" font-size="21.0">业务查询与报告</text>
<rect x="285.0" y="346.0" width="195.0" height="30.0" rx="6" fill="#FFFFFF" stroke="#FFFFFF" stroke-width="1.5"/>
<text x="382.5" y="361.0" fill="#1B4F72" text-anchor="middle" dominant-baseline="central" font-family="Microsoft YaHei" font-size="17.0">Python 组件</text>
<rect x="45.0" y="391.0" width="305.0" height="81.0" rx="6" fill="#E8F8F5" stroke="#1ABC9C" stroke-width="1.5"/>
<text x="197.5" y="418.0" fill="#14816B" text-anchor="middle" dominant-baseline="central" font-family="Microsoft YaHei" font-size="22.0">OCR 常驻工作进程</text>
<text x="197.5" y="445.0" fill="#14816B" text-anchor="middle" dominant-baseline="central" font-family="Microsoft YaHei" font-size="22.0">视觉提取 / 预测子进程</text>
<rect x="395.0" y="391.0" width="310.0" height="81.0" rx="6" fill="#EBF5FB" stroke="#5DADE2" stroke-width="1.5"/>
<text x="550.0" y="418.5" fill="#1B4F72" text-anchor="middle" dominant-baseline="central" font-family="Microsoft YaHei" font-size="21.0">FastAPI 辅助进程</text>
<text x="550.0" y="444.5" fill="#1B4F72" text-anchor="middle" dominant-baseline="central" font-family="Microsoft YaHei" font-size="21.0">Agent / RAG / 数据库工具</text>
<rect x="800.0" y="345.0" width="250.0" height="30.0" rx="6" fill="#FFFFFF" stroke="#FFFFFF" stroke-width="1.5"/>
<text x="925.0" y="360.0" fill="#B95E00" text-anchor="middle" dominant-baseline="central" font-family="Microsoft YaHei" font-size="17">PostgreSQL</text>
<rect x="800.0" y="394.0" width="250.0" height="77.0" rx="6" fill="#FFFFFF" stroke="#D35400" stroke-width="1.5"/>
<text x="925.0" y="420.5" fill="#B95E00" text-anchor="middle" dominant-baseline="central" font-family="Microsoft YaHei" font-size="19.0">业务记录 / 审查草稿 / 日志</text>
<text x="925.0" y="444.5" fill="#B95E00" text-anchor="middle" dominant-baseline="central" font-family="Microsoft YaHei" font-size="19.0">知识文本与向量</text>
<rect x="35.0" y="563.0" width="300.0" height="85.0" rx="6" fill="#FEF5E7" stroke="#B95E00" stroke-width="1.5"/>
<text x="185.0" y="592.0" fill="#B95E00" text-anchor="middle" dominant-baseline="central" font-family="Microsoft YaHei" font-size="22.0">Redis</text>
<text x="185.0" y="619.0" fill="#B95E00" text-anchor="middle" dominant-baseline="central" font-family="Microsoft YaHei" font-size="22.0">临时状态与查询缓存</text>
<rect x="450.0" y="563.0" width="575.0" height="85.0" rx="6" fill="#FDEDEC" stroke="#E74C3C" stroke-width="1.5"/>
<text x="737.5" y="592.0" fill="#922B21" text-anchor="middle" dominant-baseline="central" font-family="Microsoft YaHei" font-size="22.0">外部模型服务</text>
<text x="737.5" y="619.0" fill="#922B21" text-anchor="middle" dominant-baseline="central" font-family="Microsoft YaHei" font-size="22.0">视觉提取 / 文本生成 / 向量嵌入</text>
<rect x="555.0" y="140.0" width="170.0" height="28.0" rx="6" fill="#FFFFFF" stroke="#FFFFFF" stroke-width="1.5"/>
<text x="640.0" y="154.0" fill="#1B4F72" text-anchor="middle" dominant-baseline="central" font-family="Microsoft YaHei" font-size="15.0">HTTP / SSE</text>
<rect x="202.0" y="300.0" width="260.0" height="28.0" rx="6" fill="#FFFFFF" stroke="#FFFFFF" stroke-width="1.5"/>
<text x="332.0" y="314.0" fill="#1B4F72" text-anchor="middle" dominant-baseline="central" font-family="Microsoft YaHei" font-size="15.0">启动 / 读取结果</text>
<rect x="558.0" y="300.0" width="303.0" height="28.0" rx="6" fill="#FFFFFF" stroke="#FFFFFF" stroke-width="1.5"/>
<text x="709.5" y="314.0" fill="#1B4F72" text-anchor="middle" dominant-baseline="central" font-family="Microsoft YaHei" font-size="15.0">管理 + HTTP / SSE</text>
<rect x="935.0" y="300.0" width="110.0" height="28.0" rx="6" fill="#FFFFFF" stroke="#FFFFFF" stroke-width="1.5"/>
<text x="990.0" y="314.0" fill="#B95E00" text-anchor="middle" dominant-baseline="central" font-family="Microsoft YaHei" font-size="15.0">JDBC</text>
<rect x="717.0" y="399.0" width="75.0" height="28.0" rx="6" fill="#FFFFFF" stroke="#FFFFFF" stroke-width="1.5"/>
<text x="754.5" y="413.0" fill="#B95E00" text-anchor="middle" dominant-baseline="central" font-family="Microsoft YaHei" font-size="15.0">SQL</text>
<rect x="237.0" y="496.0" width="240.0" height="28.0" rx="6" fill="#FFFFFF" stroke="#FFFFFF" stroke-width="1.5"/>
<text x="357.0" y="510.0" fill="#922B21" text-anchor="middle" dominant-baseline="central" font-family="Microsoft YaHei" font-size="15.0">视觉路径调用</text>
<rect x="700.0" y="519.0" width="320.0" height="28.0" rx="6" fill="#FFFFFF" stroke="#FFFFFF" stroke-width="1.5"/>
<text x="860.0" y="533.0" fill="#922B21" text-anchor="middle" dominant-baseline="central" font-family="Microsoft YaHei" font-size="15.0">文本 / 嵌入调用</text></svg>